# Alias OBJ Model File
# Exported from SketchUp, (c) 2000-2006 Google, Inc.
# File units = inches

mtllib teatable.mtl

g Mesh1 Model

usemtl FrontColor
v 57 4 -0
vt 57 3.23669e-032
vn 2.034e-017 1 8.09172e-033
v 3 4 -3
vt 3 3
v 3 4 -3.55271e-015
vt 3 3.55271e-015
f 1/1/1 2/2/1 3/3/1

v 3 4 -27
vt 3 27
f 2/2/1 1/1/1 4/4/1

usemtl BackColor
vn -2.034e-017 -1 -8.09172e-033
f 3/3/2 2/2/2 1/1/2

usemtl FrontColor
vt 3 4
vn 1 0 -0
v 3 19 -3.55271e-015
vt 3.55271e-015 19
vt 3.55271e-015 4
f 2/5/3 5/6/3 3/7/3

v 3 19 -3
vt 3 19
f 5/6/3 2/5/3 6/8/3

usemtl BackColor
vn -1 -0 0
f 3/7/4 5/6/4 2/5/4

usemtl FrontColor
v -8.9767e-018 22 -0
vt -8.9767e-018 22
vn -8.58798e-017 -6.5791e-017 1
vt 3 4
vt 3 19
f 7/9/5 3/10/5 5/11/5

v 3 3 -3.55271e-015
vt 3 3
f 7/9/5 8/12/5 3/10/5

v 3 1.77636e-015 -3.55271e-015
vt 3 1.77636e-015
f 7/9/5 9/13/5 8/12/5

v -8.9767e-018 0 -0
vt -8.9767e-018 5.07195e-050
f 9/13/5 7/9/5 10/14/5

usemtl BackColor
vn 8.58798e-017 6.5791e-017 -1
f 10/14/6 7/9/6 9/13/6

usemtl FrontColor
vt -4.89565e-034 22
vn -1 1.18789e-016 5.45373e-017
v -8.9767e-018 19 -3
vt -3 19
vt -4.89565e-034 -1.06634e-033
f 7/15/7 11/16/7 10/17/7

v -4.44987e-015 22 -30
vt -30 22
f 11/16/7 7/15/7 12/18/7

usemtl BackColor
vn 1 -1.18789e-016 -5.45373e-017
f 10/17/8 11/16/8 7/15/8

usemtl FrontColor
v -6.22623e-015 0 -3
vt -3 -7.20174e-031
f 11/16/7 13/19/7 10/17/7

v -6.22623e-015 4 -3
vt -3 4
f 13/19/7 11/16/7 14/20/7

usemtl BackColor
f 10/17/8 13/19/8 11/16/8

f 14/20/8 11/16/8 13/19/8

usemtl FrontColor
vt -1.06492e-014 19
vn -3.55271e-015 2.36848e-016 -1
vt -3 4
vt -4.43192e-015 4
f 11/21/9 2/22/9 14/23/9

vt -3 19
f 2/22/9 11/21/9 6/24/9

usemtl BackColor
vn 3.55271e-015 -2.36848e-016 1
f 14/23/10 2/22/10 11/21/10

usemtl FrontColor
v -4.44987e-015 4 -27
vt -4.53123e-015 27
vt -6.30759e-015 3
f 2/2/1 15/25/1 14/26/1

f 15/25/1 2/2/1 4/4/1

usemtl BackColor
f 14/26/2 15/25/2 2/2/2

usemtl FrontColor
vt -27 4
vn -1 0 -7.40149e-017
v -6.22623e-015 3 -3
vt -3 3
f 15/27/11 16/28/11 14/20/11

v -4.44987e-015 3 -27
vt -27 3
f 16/28/11 15/27/11 17/29/11

usemtl BackColor
vn 1 -0 7.40149e-017
f 14/20/12 16/28/12 15/27/12

usemtl FrontColor
f 13/19/7 14/20/7 16/28/7

usemtl BackColor
f 16/28/8 14/20/8 13/19/8

usemtl FrontColor
v 3 3 -3
vt -3 3
vn -2.36848e-015 0 -1
vt -8.79202e-016 3
vt -8.79202e-016 4
f 18/30/13 16/31/13 14/32/13

vt 4.51089e-015 27
vn -2.034e-017 -1 -7.83543e-033
vt -3 3
vt 6.28725e-015 3
f 17/33/14 18/34/14 16/35/14

v 3 3 -27
vt -3 27
f 18/34/14 17/33/14 19/36/14

usemtl BackColor
vn 2.034e-017 1 7.83543e-033
f 16/35/15 18/34/15 17/33/15

usemtl FrontColor
v 3 1.77636e-015 -3
vt -3 1.77636e-015
f 20/37/13 16/31/13 18/30/13

vt -8.79202e-016 0
f 16/31/13 20/37/13 13/38/13

usemtl BackColor
vn 2.36848e-015 -0 1
f 13/38/16 20/37/16 16/31/16

f 18/30/16 16/31/16 20/37/16

f 14/32/16 16/31/16 18/30/16

usemtl FrontColor
vt -3 4
f 18/30/13 14/32/13 2/39/13

usemtl BackColor
f 2/39/16 14/32/16 18/30/16

usemtl FrontColor
vt 3 1.77636e-015
vt 3 3
f 2/5/3 20/40/3 18/41/3

f 3/7/3 20/40/3 2/5/3

vt 3.55271e-015 3
f 8/42/3 20/40/3 3/7/3

vt 3.55271e-015 1.77636e-015
f 20/40/3 8/42/3 9/43/3

usemtl BackColor
f 9/43/4 8/42/4 20/40/4

f 8/12/6 9/13/6 7/9/6

f 3/10/6 8/12/6 7/9/6

usemtl FrontColor
vn -6.5791e-017 -2.33737e-031 1
vt 57 4
f 8/12/17 1/44/17 3/10/17

v 57 3 -0
vt 57 3
f 1/44/17 8/12/17 21/45/17

usemtl BackColor
vn 6.5791e-017 2.33737e-031 -1
f 21/45/18 8/12/18 1/44/18

usemtl FrontColor
vt -3 3.55271e-015
vt -57 2.35063e-032
f 8/46/14 19/36/14 21/47/14

f 18/34/14 19/36/14 8/46/14

usemtl BackColor
f 19/36/15 17/33/15 18/34/15

usemtl FrontColor
vt -4.44987e-015 3
vn 0 0 1
v 3 1.77636e-015 -27
vt 3 1.77636e-015
vt 3 3
f 17/48/19 22/49/19 19/50/19

v -4.44987e-015 0 -27
vt -4.44987e-015 0
f 22/49/19 17/48/19 23/51/19

usemtl BackColor
vn -0 -0 -1
f 23/51/20 17/48/20 22/49/20

usemtl FrontColor
vt -27 -3.53679e-031
f 17/29/7 12/18/7 23/52/7

f 15/27/7 12/18/7 17/29/7

v -3.56169e-015 19 -27
vt -27 19
f 24/53/7 12/18/7 15/27/7

f 11/16/7 12/18/7 24/53/7

usemtl BackColor
f 12/18/8 7/15/8 11/16/8

usemtl FrontColor
v 5 22 -25
vt 5 25
vn 0 1 -0
vt -4.44987e-015 30
vt -8.9767e-018 0
f 25/54/21 12/55/21 7/56/21

v 60 22 -30
vt 60 30
f 12/55/21 25/54/21 26/57/21

usemtl BackColor
vn -0 -1 0
f 26/57/22 25/54/22 12/55/22

usemtl FrontColor
v 27.5 22 -25
vt 27.5 25
f 26/57/21 25/54/21 27/58/21

usemtl BackColor
f 27/58/22 25/54/22 26/57/22

usemtl __5
v 5 22 -5
vt 5 5
f 28/59/21 27/58/21 25/54/21

v 27.5 22 -5
vt 27.5 5
f 27/58/21 28/59/21 29/60/21

f 25/54/22 27/58/22 28/59/22

usemtl FrontColor
v 5 19 -25
vt 5 19
vt 27.5 22
vt 5 22
f 30/61/19 27/62/19 25/63/19

v 27.5 19 -25
vt 27.5 19
f 27/62/19 30/61/19 31/64/19

usemtl BackColor
f 31/64/20 30/61/20 27/62/20

usemtl FrontColor
vt -5 25
vn 0 -1 -0
v 57 19 -30
vt -57 30
vt -27.5 25
f 30/65/23 32/66/23 31/67/23

v 3 19 -27
f 33/36/23 32/66/23 30/65/23

v 3 19 -30
vt -3 30
f 32/66/23 33/36/23 34/68/23

usemtl BackColor
vn -0 1 0
f 34/68/24 33/36/24 32/66/24

usemtl FrontColor
vt 27 19
vn 1 0 -1.18424e-015
v 3 4 -30
vt 30 4
vt 30 19
f 33/69/25 35/70/25 34/71/25

vt 27 4
f 35/70/25 33/69/25 4/72/25

usemtl BackColor
vn -1 -0 1.18424e-015
f 4/72/26 33/69/26 35/70/26

usemtl FrontColor
vt -3.56169e-015 19
vt 3 4
vt 3 19
f 24/73/19 4/74/19 33/75/19

vt -4.44987e-015 4
f 4/74/19 24/73/19 15/76/19

usemtl BackColor
f 15/76/20 24/73/20 4/74/20

f 15/27/8 12/18/8 24/53/8

f 17/29/8 12/18/8 15/27/8

f 23/52/8 12/18/8 17/29/8

usemtl FrontColor
v -4.44987e-015 0 -30
vt -30 -3.34243e-031
f 23/52/7 12/18/7 36/77/7

usemtl BackColor
f 36/77/8 12/18/8 23/52/8

usemtl FrontColor
vt 3.09387e-015 22
vn -4.51999e-017 -4.38607e-017 -1
v 3 1.77636e-015 -30
vt -3 3.09218e-015
vt 3.09387e-015 1.31582e-015
f 12/78/27 37/79/27 36/80/27

v 3 3 -30
vt -3 3
f 37/79/27 12/78/27 38/81/27

usemtl BackColor
vn 4.51999e-017 4.38607e-017 1
f 36/80/28 37/79/28 12/78/28

f 38/81/28 12/78/28 37/79/28

usemtl FrontColor
vt -3 4
f 38/81/27 12/78/27 35/82/27

usemtl BackColor
f 35/82/28 12/78/28 38/81/28

usemtl FrontColor
vt -3 19
f 35/82/27 12/78/27 34/83/27

usemtl BackColor
f 34/83/28 12/78/28 35/82/28

usemtl FrontColor
vt -57 19
f 34/83/27 12/78/27 32/84/27

usemtl BackColor
f 32/84/28 12/78/28 34/83/28

usemtl FrontColor
vt -60 22
f 26/85/27 32/84/27 12/78/27

v 57 4 -30
vt -57 4
f 26/85/27 39/86/27 32/84/27

v 57 3 -30
vt -57 3
f 26/85/27 40/87/27 39/86/27

v 60 0 -30
vt -60 1.31582e-015
f 41/88/27 40/87/27 26/85/27

v 57 0 -30
vt -57 1.31582e-015
f 40/87/27 41/88/27 42/89/27

usemtl BackColor
f 42/89/28 41/88/28 40/87/28

f 26/85/28 40/87/28 41/88/28

f 39/86/28 40/87/28 26/85/28

usemtl FrontColor
vt -30 0
vn -1 0 -0
vt -30 4
vt -30 3
f 42/90/29 39/91/29 40/92/29

v 57 0 -27
vt -27 0
f 43/93/29 39/91/29 42/90/29

v 57 3 -27
vt -27 3
f 44/94/29 39/91/29 43/93/29

v 57 4 -27
vt -27 4
f 39/91/29 44/94/29 45/95/29

usemtl BackColor
vn 1 -0 0
f 45/95/30 44/94/30 39/91/30

usemtl FrontColor
vt 57 3
vn -3.55271e-015 9.10224e-032 1
v 60 4 -27
vt 60 4
vt 57 4
f 44/96/31 46/97/31 45/98/31

v 60 3 -27
vt 60 3
f 44/96/31 47/99/31 46/97/31

vt 57 2.45761e-030
f 43/100/31 47/99/31 44/96/31

v 60 0 -27
vt 60 2.45761e-030
f 47/99/31 43/100/31 48/101/31

usemtl BackColor
vn 3.55271e-015 -9.10224e-032 -1
f 48/101/32 43/100/32 47/99/32

f 44/96/32 47/99/32 43/100/32

f 46/97/32 47/99/32 44/96/32

usemtl FrontColor
v 60 4 -3
vt 3 4
vn 1 0 5.92119e-016
vt 27 3
vt 27 4
f 49/102/33 47/103/33 46/104/33

v 60 3 -3
vt 3 3
f 47/103/33 49/102/33 50/105/33

usemtl BackColor
vn -1 -0 -5.92119e-016
f 50/105/34 49/102/34 47/103/34

usemtl FrontColor
v 60 19 -3
vt 3 19
vn 1 -8.77213e-017 3.32418e-016
vt 3 3
vt 3 4
f 51/106/35 50/107/35 49/108/35

v 60 0 -3
vt 3 5.26328e-015
f 51/106/35 52/109/35 50/107/35

v 60 22 7.10543e-015
vt 1.28396e-014 22
f 53/110/35 52/109/35 51/106/35

v 60 0 7.10543e-015
vt 1.28396e-014 5.26328e-015
f 52/109/35 53/110/35 54/111/35

usemtl BackColor
vn -1 8.77213e-017 -3.32418e-016
f 54/111/36 53/110/36 52/109/36

usemtl FrontColor
vt 60 22
v 57 0 -0
vt 57 -3.22057e-031
vt 60 1.28466e-031
f 53/112/5 55/113/5 54/114/5

f 55/113/5 53/112/5 21/45/5

usemtl BackColor
f 54/114/6 55/113/6 53/112/6

f 21/45/6 53/112/6 55/113/6

usemtl FrontColor
f 21/45/5 53/112/5 1/44/5

usemtl BackColor
f 1/44/6 53/112/6 21/45/6

usemtl FrontColor
v 57 19 -0
vt 57 19
f 1/44/5 53/112/5 56/115/5

usemtl BackColor
f 56/115/6 53/112/6 1/44/6

usemtl FrontColor
f 56/115/5 53/112/5 5/11/5

usemtl BackColor
f 5/11/6 53/112/6 56/115/6

usemtl FrontColor
f 7/9/5 5/11/5 53/112/5

usemtl BackColor
f 5/11/6 3/10/6 7/9/6

f 53/112/6 5/11/6 7/9/6

usemtl FrontColor
vt 60 -7.10543e-015
f 28/59/21 7/56/21 53/116/21

f 7/56/21 28/59/21 25/54/21

usemtl BackColor
f 25/54/22 28/59/22 7/56/22

usemtl FrontColor
vn 1 0 -1.77636e-016
vt 25 19
vt 25 22
f 28/63/37 30/117/37 25/118/37

v 5 19 -5
f 30/117/37 28/63/37 57/61/37

usemtl BackColor
vn -1 -0 1.77636e-016
f 57/61/38 28/63/38 30/117/38

usemtl FrontColor
vt -5 22
vn 0 0 -1
v 27.5 19 -5
vt -27.5 19
vt -5 19
f 28/119/39 58/120/39 57/121/39

vt -27.5 22
f 58/120/39 28/119/39 29/122/39

usemtl BackColor
vn -0 -0 1
f 57/121/40 58/120/40 28/119/40

usemtl FrontColor
vt -57 0
vt -5 5
vt -27.5 5
f 56/123/23 57/124/23 58/125/23

f 5/46/23 57/124/23 56/123/23

f 5/46/23 33/36/23 57/124/23

f 6/34/23 33/36/23 5/46/23

vt 8.9767e-018 3
f 11/126/23 33/36/23 6/34/23

vt 3.56169e-015 27
f 33/36/23 11/126/23 24/127/23

usemtl BackColor
f 24/127/24 11/126/24 33/36/24

f 24/53/8 12/18/8 11/16/8

f 6/34/24 33/36/24 11/126/24

f 5/46/24 33/36/24 6/34/24

f 57/124/24 33/36/24 5/46/24

usemtl FrontColor
f 57/124/23 33/36/23 30/65/23

usemtl BackColor
f 30/65/24 33/36/24 57/124/24

f 30/65/24 32/66/24 33/36/24

f 31/67/24 32/66/24 30/65/24

usemtl FrontColor
v 32.5 19 -25
vt -32.5 25
f 31/67/23 32/66/23 59/128/23

usemtl BackColor
f 59/128/24 32/66/24 31/67/24

usemtl FrontColor
v 55 19 -25
vt -55 25
f 59/128/23 32/66/23 60/129/23

usemtl BackColor
f 60/129/24 32/66/24 59/128/24

usemtl FrontColor
v 57 19 -3
vt -57 3
f 60/129/23 32/66/23 61/130/23

usemtl BackColor
f 61/130/24 32/66/24 60/129/24

usemtl FrontColor
v 57 19 -27
vt -57 27
f 61/130/23 32/66/23 62/131/23

usemtl BackColor
f 62/131/24 32/66/24 61/130/24

usemtl FrontColor
vt -30 19
vt -27 19
f 32/132/29 45/95/29 62/133/29

f 45/95/29 32/132/29 39/91/29

usemtl BackColor
f 62/133/30 45/95/30 32/132/30

usemtl FrontColor
vn -3.55271e-015 0 1
v 60 19 -27
vt 60 19
vt 57 19
f 45/98/41 63/134/41 62/135/41

f 63/134/41 45/98/41 46/97/41

usemtl BackColor
vn 3.55271e-015 -0 -1
f 46/97/42 45/98/42 63/134/42

usemtl FrontColor
vt 57 27
vt 60 3
vt 60 27
f 45/136/1 49/137/1 46/138/1

v 57 4 -3
vt 57 3
f 49/137/1 45/136/1 64/139/1

usemtl BackColor
f 64/139/2 45/136/2 49/137/2

usemtl FrontColor
vt 57 30
f 39/140/1 64/139/1 45/136/1

f 39/140/1 4/4/1 64/139/1

vt 3 30
f 4/4/1 39/140/1 35/141/1

usemtl BackColor
f 35/141/2 39/140/2 4/4/2

usemtl FrontColor
vt -57 4
vt -3 3
vt -3 4
f 39/142/39 38/143/39 35/144/39

vt -57 3
f 38/143/39 39/142/39 40/145/39

usemtl BackColor
f 40/145/40 39/142/40 38/143/40

f 40/92/30 39/91/30 42/90/30

f 42/90/30 39/91/30 43/93/30

f 43/93/30 39/91/30 44/94/30

f 35/144/40 38/143/40 39/142/40

usemtl FrontColor
vn 1 1.51704e-032 -1.18424e-015
vt 30 1.77636e-015
vt 30 3
f 35/70/43 37/146/43 38/147/43

f 4/72/43 37/146/43 35/70/43

vt 27 3
f 19/148/43 37/146/43 4/72/43

vt 27 1.77636e-015
f 37/146/43 19/148/43 22/149/43

usemtl BackColor
vn -1 -1.51704e-032 1.18424e-015
f 22/149/44 19/148/44 37/146/44

f 19/50/20 22/49/20 17/48/20

usemtl FrontColor
f 17/48/19 19/50/19 15/76/19

usemtl BackColor
f 15/76/20 19/50/20 17/48/20

usemtl FrontColor
f 15/76/19 19/50/19 4/74/19

usemtl BackColor
f 4/74/20 19/50/20 15/76/20

f 4/72/44 37/146/44 19/148/44

f 35/70/44 37/146/44 4/72/44

f 38/147/44 37/146/44 35/70/44

f 4/4/2 2/2/2 15/25/2

f 4/4/2 1/1/2 2/2/2

usemtl FrontColor
f 64/139/1 4/4/1 1/1/1

usemtl BackColor
f 64/139/2 4/4/2 39/140/2

f 1/1/2 4/4/2 64/139/2

usemtl FrontColor
vt 0 4
vt -3 19
vt -3 4
f 1/150/29 61/151/29 64/152/29

vt 0 19
f 61/151/29 1/150/29 56/153/29

usemtl BackColor
f 56/153/30 1/150/30 61/151/30

f 64/152/30 61/151/30 1/150/30

usemtl FrontColor
vt -57 19
vt -60 4
vt -57 4
f 61/154/39 49/155/39 64/156/39

vt -60 19
f 49/155/39 61/154/39 51/157/39

usemtl BackColor
f 64/156/40 49/155/40 61/154/40

usemtl FrontColor
vt -60 3
f 50/158/39 64/156/39 49/155/39

v 57 3 -3
vt -57 3
f 50/158/39 65/159/39 64/156/39

vt -60 3
f 65/130/14 44/131/14 50/160/14

f 65/130/14 40/66/14 44/131/14

f 19/36/14 40/66/14 65/130/14

f 40/66/14 19/36/14 38/68/14

usemtl BackColor
f 38/68/15 19/36/15 40/66/15

f 65/130/15 40/66/15 19/36/15

f 44/131/15 40/66/15 65/130/15

f 50/160/15 44/131/15 65/130/15

usemtl FrontColor
vt -60 27
f 50/160/14 44/131/14 47/161/14

usemtl BackColor
f 47/161/15 44/131/15 50/160/15

usemtl FrontColor
vt -60 0
f 52/162/39 65/159/39 50/158/39

v 57 0 -3
f 65/159/39 52/162/39 66/123/39

usemtl BackColor
f 66/123/40 52/162/40 65/159/40

f 50/158/40 65/159/40 52/162/40

f 64/156/40 65/159/40 50/158/40

usemtl FrontColor
vt -3 0
vt -3 3
f 66/163/29 64/152/29 65/164/29

vt 0 0
f 55/165/29 64/152/29 66/163/29

vt 0 3
f 21/166/29 64/152/29 55/165/29

f 64/152/29 21/166/29 1/150/29

usemtl BackColor
f 1/150/30 21/166/30 64/152/30

f 55/165/30 64/152/30 21/166/30

f 66/163/30 64/152/30 55/165/30

f 65/164/30 64/152/30 66/163/30

f 49/155/40 64/156/40 50/158/40

f 49/108/36 50/107/36 51/106/36

f 50/107/36 52/109/36 51/106/36

f 51/106/36 52/109/36 53/110/36

usemtl FrontColor
vt 30 22
f 53/110/35 51/106/35 26/167/35

usemtl BackColor
f 26/167/36 51/106/36 53/110/36

usemtl FrontColor
vt 27 19
f 26/167/35 51/106/35 63/168/35

usemtl BackColor
f 63/168/36 51/106/36 26/167/36

usemtl FrontColor
f 51/160/23 62/131/23 63/161/23

f 61/130/23 62/131/23 51/160/23

usemtl BackColor
f 51/160/24 62/131/24 61/130/24

f 63/161/24 62/131/24 51/160/24

f 62/135/42 63/134/42 45/98/42

f 51/157/40 61/154/40 49/155/40

usemtl FrontColor
vt 30 5.26328e-015
f 26/167/35 63/168/35 41/169/35

usemtl BackColor
f 41/169/36 63/168/36 26/167/36

usemtl FrontColor
vt 27 4
f 46/170/35 41/169/35 63/168/35

vt 27 3
f 47/171/35 41/169/35 46/170/35

vt 27 5.26328e-015
f 41/169/35 47/171/35 48/172/35

usemtl BackColor
f 48/172/36 47/171/36 41/169/36

f 46/170/36 41/169/36 47/171/36

f 63/168/36 41/169/36 46/170/36

f 46/104/34 47/103/34 49/102/34

f 46/138/2 49/137/2 45/136/2

f 45/98/32 46/97/32 44/96/32

usemtl FrontColor
v 55 22 -25
vt 55 25
f 26/57/21 67/173/21 53/116/21

v 32.5 22 -25
vt 32.5 25
f 26/57/21 68/174/21 67/173/21

f 26/57/21 27/58/21 68/174/21

usemtl BackColor
f 68/174/22 27/58/22 26/57/22

usemtl FrontColor
v 32.5 22 -5
vt 32.5 5
f 27/58/21 69/175/21 68/174/21

f 29/60/21 69/175/21 27/58/21

f 29/60/21 53/116/21 69/175/21

f 28/59/21 53/116/21 29/60/21

usemtl BackColor
f 53/116/22 7/56/22 28/59/22

f 29/60/22 53/116/22 28/59/22

f 69/175/22 53/116/22 29/60/22

usemtl FrontColor
v 55 22 -5
vt 55 5
f 69/175/21 53/116/21 70/176/21

usemtl BackColor
f 70/176/22 53/116/22 69/175/22

usemtl FrontColor
f 70/176/21 53/116/21 67/173/21

usemtl BackColor
f 67/173/22 53/116/22 70/176/22

f 53/116/22 67/173/22 26/57/22

f 67/173/22 68/174/22 26/57/22

usemtl __5
f 69/175/21 67/173/21 68/174/21

f 67/173/21 69/175/21 70/176/21

f 68/174/22 67/173/22 69/175/22

usemtl FrontColor
vt 32.5 19
vt 55 22
vt 32.5 22
f 59/177/19 67/178/19 68/179/19

vt 55 19
f 67/178/19 59/177/19 60/180/19

usemtl BackColor
f 60/180/20 59/177/20 67/178/20

f 68/179/20 67/178/20 59/177/20

usemtl FrontColor
vt 5 22
vn 1 0 -7.10543e-016
vt 25 19
vt 25 22
f 69/181/45 59/182/45 68/183/45

v 32.5 19 -5
vt 5 19
f 59/182/45 69/181/45 71/184/45

usemtl BackColor
vn -1 -0 7.10543e-016
f 71/184/46 69/181/46 59/182/46

usemtl FrontColor
vt -32.5 22
v 55 19 -5
vt -55 19
vt -32.5 19
f 69/185/39 72/186/39 71/187/39

vt -55 22
f 72/186/39 69/185/39 70/188/39

usemtl BackColor
f 71/187/40 72/186/40 69/185/40

usemtl FrontColor
vt -32.5 5
vt -55 5
f 56/123/23 71/189/23 72/190/23

f 56/123/23 58/125/23 71/189/23

usemtl BackColor
f 58/125/24 57/124/24 56/123/24

f 56/123/24 57/124/24 5/46/24

f 71/189/24 58/125/24 56/123/24

usemtl FrontColor
f 71/189/23 58/125/23 59/128/23

usemtl BackColor
f 59/128/24 58/125/24 71/189/24

usemtl FrontColor
f 31/67/23 59/128/23 58/125/23

usemtl BackColor
f 58/125/24 59/128/24 31/67/24

usemtl FrontColor
vt -5 19
vt -25 22
vt -25 19
f 58/191/29 27/192/29 31/193/29

vt -5 22
f 27/192/29 58/191/29 29/194/29

usemtl BackColor
f 29/194/30 58/191/30 27/192/30

f 29/122/40 28/119/40 58/120/40

usemtl __5
f 29/60/22 28/59/22 27/58/22

usemtl BackColor
f 27/58/22 69/175/22 29/60/22

f 68/174/22 69/175/22 27/58/22

f 68/183/46 59/182/46 69/181/46

f 31/193/30 27/192/30 58/191/30

f 72/190/24 71/189/24 56/123/24

usemtl FrontColor
f 56/123/23 72/190/23 60/129/23

usemtl BackColor
f 60/129/24 72/190/24 56/123/24

usemtl FrontColor
vt -5 19
vn -1 0 -7.10543e-016
vt -25 22
vt -25 19
f 72/195/47 67/196/47 60/197/47

vt -5 22
f 67/196/47 72/195/47 70/198/47

usemtl BackColor
vn 1 -0 7.10543e-016
f 70/198/48 72/195/48 67/196/48

f 70/188/40 69/185/40 72/186/40

usemtl __5
f 70/176/22 69/175/22 67/173/22

usemtl BackColor
f 60/197/48 67/196/48 72/195/48

usemtl FrontColor
f 56/123/23 60/129/23 61/130/23

usemtl BackColor
f 61/130/24 60/129/24 56/123/24

usemtl FrontColor
f 21/47/14 19/36/14 65/130/14

usemtl BackColor
f 21/47/15 19/36/15 8/46/15

f 65/130/15 19/36/15 21/47/15

f 8/46/15 19/36/15 18/34/15

f 45/136/2 64/139/2 39/140/2

f 39/91/30 32/132/30 45/95/30

f 32/84/28 39/86/28 26/85/28

f 12/78/28 32/84/28 26/85/28

f 17/29/12 15/27/12 16/28/12

f 6/8/4 2/5/4 5/6/4

f 6/24/10 11/21/10 2/22/10

f 33/75/20 4/74/20 24/73/20

f 25/118/38 30/117/38 28/63/38

f 25/63/20 27/62/20 30/61/20

f 7/56/22 12/55/22 25/54/22

f 34/71/26 35/70/26 33/69/26

f 3/10/18 1/44/18 8/12/18

f 3/7/4 20/40/4 8/42/4

f 2/5/4 20/40/4 3/7/4

f 18/41/4 20/40/4 2/5/4

g Mesh2 Model

l 42 43

l 41 42

l 41 26

l 48 41

l 48 47

l 43 48

l 43 44

l 40 44

l 40 39

l 42 40

l 40 38

l 38 19

l 37 38

l 37 36

l 37 22

l 22 23

l 22 19

l 19 17

l 19 4

l 35 4

l 39 35

l 39 45

l 39 32

l 32 34

l 32 62

l 62 63

l 45 62

l 45 46

l 44 45

l 44 47

l 50 47

l 50 49

l 65 50

l 21 65

l 8 21

l 8 3

l 18 8

l 16 18

l 16 14

l 13 16

l 13 20

l 13 10

l 10 7

l 10 9

l 20 9

l 20 18

l 18 2

l 14 2

l 15 14

l 4 15

l 4 33

l 33 24

l 34 33

l 35 34

l 38 35

l 15 24

l 17 15

l 17 16

l 23 17

l 36 23

l 36 12

l 12 7

l 26 12

l 53 26

l 54 53

l 55 54

l 55 66

l 55 21

l 21 1

l 3 1

l 2 3

l 2 6

l 11 6

l 24 11

l 14 11

l 6 5

l 5 56

l 3 5

l 56 61

l 1 56

l 1 64

l 64 49

l 64 61

l 65 64

l 66 65

l 66 52

l 54 52

l 52 50

l 61 51

l 49 51

l 49 46

l 46 63

l 47 46

l 51 63

l 7 53

l 9 8

g Mesh3 Model

l 59 60

l 68 59

l 68 67

l 69 68

l 70 69

l 67 70

l 67 60

l 60 72

l 72 71

l 70 72

l 69 71

l 71 59

g Mesh4 Model

l 28 25

l 28 57

l 29 28

l 27 29

l 27 31

l 25 27

l 25 30

l 57 30

l 58 57

l 31 58

l 30 31

l 29 58

